<?xml version="1.0" encoding="UTF-8" standalone="no"?>
<svg
   xmlns:dc="http://purl.org/dc/elements/1.1/"
   xmlns:cc="http://creativecommons.org/ns#"
   xmlns:rdf="http://www.w3.org/1999/02/22-rdf-syntax-ns#"
   xmlns:svg="http://www.w3.org/2000/svg"
   xmlns="http://www.w3.org/2000/svg"
   id="svg4669"
   version="1.1"
   viewBox="0 0 58.160679 19.540234"
   height="19.540234mm"
   width="58.160679mm">
  <defs
     id="defs4663" />
  <metadata
     id="metadata4666">
    <rdf:RDF>
      <cc:Work
         rdf:about="">
        <dc:format>image/svg+xml</dc:format>
        <dc:type
           rdf:resource="http://purl.org/dc/dcmitype/StillImage" />
        <dc:title></dc:title>
      </cc:Work>
    </rdf:RDF>
  </metadata>
  <g
     transform="translate(-129.66966,-121.67631)"
     id="layer1">
    <path
       id="path5283"
       style="font-style:normal;font-variant:normal;font-weight:bold;font-stretch:normal;font-size:40px;line-height:1.25;font-family:Aller;-inkscape-font-specification:'Aller Bold';letter-spacing:0px;word-spacing:0px;opacity:0.95999995;fill:#ffffff;fill-opacity:1;stroke:none;stroke-width:1.665;stroke-miterlimit:0.60000002;stroke-dasharray:none"
       d="m 151.08754,127.583 q 0.42333,-0.0635 0.81491,-0.0635 0.41275,0 0.81492,0.0635 l 1.74625,4.36033 1.79917,-4.36033 q 0.32808,-0.0635 0.73025,-0.0635 0.40216,0 0.77258,0.0635 l 0.35983,7.60942 q -0.40216,0.0635 -0.762,0.0635 -0.35983,0 -0.70908,-0.0635 l -0.1905,-5.16467 -1.54517,3.57717 q -0.14816,0.0212 -0.30691,0.0423 -0.15875,0.0106 -0.3175,0.0106 -0.13759,0 -0.27517,-0.0106 -0.13758,-0.0106 -0.28575,-0.0423 l -1.43933,-3.65125 -0.14817,5.23875 q -0.33867,0.0635 -0.65617,0.0635 -0.33866,0 -0.6985,-0.0635 z" />
    <path
       id="path5285"
       style="font-style:normal;font-variant:normal;font-weight:bold;font-stretch:normal;font-size:40px;line-height:1.25;font-family:Aller;-inkscape-font-specification:'Aller Bold';letter-spacing:0px;word-spacing:0px;opacity:0.95999995;fill:#ffffff;fill-opacity:1;stroke:none;stroke-width:1.665;stroke-miterlimit:0.60000002;stroke-dasharray:none"
       d="m 159.8125,130.86383 h -0.70908 q -0.0318,-0.13758 -0.0529,-0.28575 -0.0106,-0.15875 -0.0106,-0.29633 0,-0.28575 0.0635,-0.56092 h 2.18017 v 5.47159 q -0.381,0.0635 -0.74084,0.0635 -0.34925,0 -0.73025,-0.0635 z m -0.22225,-2.06375 q -0.0635,-0.35983 -0.0635,-0.70908 0,-0.33867 0.0635,-0.70908 0.17992,-0.0317 0.381,-0.0423 0.21167,-0.0212 0.381,-0.0212 0.17992,0 0.39159,0.0212 0.21166,0.0106 0.39158,0.0423 0.0317,0.17991 0.0423,0.35983 0.0106,0.16933 0.0106,0.34925 0,0.16933 -0.0106,0.34925 -0.0106,0.17992 -0.0423,0.35983 -0.17992,0.0317 -0.39158,0.0423 -0.20109,0.0106 -0.381,0.0106 -0.16934,0 -0.381,-0.0106 -0.21167,-0.0106 -0.39159,-0.0423 z" />
    <path
       id="path5287"
       style="font-style:normal;font-variant:normal;font-weight:bold;font-stretch:normal;font-size:40px;line-height:1.25;font-family:Aller;-inkscape-font-specification:'Aller Bold';letter-spacing:0px;word-spacing:0px;opacity:0.95999995;fill:#ffffff;fill-opacity:1;stroke:none;stroke-width:1.665;stroke-miterlimit:0.60000002;stroke-dasharray:none"
       d="m 162.76145,129.72083 q 0.14816,-0.0318 0.29633,-0.0423 0.14817,-0.0212 0.32808,-0.0212 0.17992,0 0.3175,0.0212 0.13759,0.0106 0.28575,0.0423 0.0317,0.0529 0.0529,0.15875 0.0318,0.0952 0.0529,0.21167 0.0212,0.10583 0.0318,0.21167 0.0212,0.10583 0.0317,0.17991 0.10583,-0.15875 0.254,-0.3175 0.14816,-0.15875 0.33866,-0.28575 0.20109,-0.127 0.4445,-0.20108 0.24342,-0.0847 0.53975,-0.0847 0.93134,0 1.397,0.508 0.47625,0.508 0.47625,1.59809 v 3.4925 q -0.381,0.0635 -0.75141,0.0635 -0.37042,0 -0.75142,-0.0635 v -3.09034 q 0,-0.5715 -0.17992,-0.87841 -0.16933,-0.30692 -0.60325,-0.30692 -0.17991,0 -0.37041,0.0529 -0.1905,0.0529 -0.34925,0.21166 -0.14817,0.14817 -0.24342,0.42334 -0.0953,0.27516 -0.0953,0.71966 v 2.86809 q -0.381,0.0635 -0.75142,0.0635 -0.37041,0 -0.75141,-0.0635 z" />
    <path
       id="path5289"
       style="font-style:normal;font-variant:normal;font-weight:bold;font-stretch:normal;font-size:40px;line-height:1.25;font-family:Aller;-inkscape-font-specification:'Aller Bold';letter-spacing:0px;word-spacing:0px;opacity:0.95999995;fill:#ffffff;fill-opacity:1;stroke:none;stroke-width:1.665;stroke-miterlimit:0.60000002;stroke-dasharray:none"
       d="m 171.71379,132.68417 q -0.127,-0.0212 -0.27517,-0.0317 -0.14816,-0.0212 -0.26458,-0.0212 -0.51858,0 -0.8255,0.1905 -0.29633,0.17992 -0.29633,0.59267 0,0.27516 0.11641,0.42333 0.11642,0.14817 0.27517,0.22225 0.16933,0.0635 0.34925,0.0847 0.1905,0.0106 0.32808,0.0106 0.15875,0 0.3175,-0.0212 0.15875,-0.0318 0.27517,-0.0529 z m 0,-1.09009 q 0,-0.254 -0.0847,-0.41275 -0.0847,-0.15875 -0.23283,-0.24341 -0.14817,-0.0952 -0.37042,-0.127 -0.21166,-0.0318 -0.47625,-0.0318 -0.5715,0 -1.21708,0.22225 -0.14817,-0.27517 -0.22225,-0.51859 -0.0741,-0.24341 -0.0741,-0.58208 0.46566,-0.15875 0.93133,-0.23283 0.46567,-0.0741 0.86783,-0.0741 1.10067,0 1.7145,0.52917 0.62442,0.52917 0.62442,1.69333 v 3.175 q -0.37042,0.11642 -0.89958,0.22225 -0.52917,0.10584 -1.19592,0.10584 -0.53975,0 -0.99483,-0.0953 -0.4445,-0.0952 -0.77259,-0.3175 -0.3175,-0.22225 -0.49741,-0.5715 -0.16934,-0.34925 -0.16934,-0.85725 0,-0.508 0.21167,-0.84667 0.22225,-0.34925 0.56092,-0.55033 0.34925,-0.21167 0.77258,-0.29634 0.42333,-0.0952 0.84667,-0.0952 0.30691,0 0.67733,0.0317 z" />
    <path
       id="path5291"
       style="font-style:normal;font-variant:normal;font-weight:bold;font-stretch:normal;font-size:40px;line-height:1.25;font-family:Aller;-inkscape-font-specification:'Aller Bold';letter-spacing:0px;word-spacing:0px;opacity:0.95999995;fill:#ffffff;fill-opacity:1;stroke:none;stroke-width:1.665;stroke-miterlimit:0.60000002;stroke-dasharray:none"
       d="m 174.50233,129.72083 q 0.15875,-0.0318 0.29634,-0.0423 0.14816,-0.0212 0.3175,-0.0212 0.15875,0 0.30691,0.0212 0.15875,0.0212 0.30692,0.0529 0.0318,0.0529 0.0529,0.15875 0.0318,0.0952 0.0529,0.21166 0.0212,0.10584 0.0318,0.22225 0.0212,0.10584 0.0317,0.17992 0.23284,-0.32808 0.5715,-0.58208 0.33867,-0.26459 0.84667,-0.26459 0.10583,0 0.24342,0.0106 0.13758,0.0106 0.20108,0.0317 0.0212,0.10583 0.0317,0.24341 0.0106,0.13759 0.0106,0.28575 0,0.17992 -0.0212,0.39159 -0.0106,0.21166 -0.0529,0.40216 -0.11642,-0.0212 -0.26458,-0.0212 -0.13759,0 -0.16934,0 -0.17991,0 -0.40216,0.0423 -0.22225,0.0318 -0.42334,0.1905 -0.20108,0.15875 -0.33866,0.47625 -0.127,0.3175 -0.127,0.889 v 2.6035 q -0.1905,0.0317 -0.381,0.0423 -0.1905,0.0106 -0.37042,0.0106 -0.17992,0 -0.37042,-0.0106 -0.17991,-0.0106 -0.381,-0.0423 z" />
    <path
       id="path5293"
       style="font-style:normal;font-variant:normal;font-weight:bold;font-stretch:normal;font-size:40px;line-height:1.25;font-family:Aller;-inkscape-font-specification:'Aller Bold';letter-spacing:0px;word-spacing:0px;opacity:0.95999995;fill:#ffffff;fill-opacity:1;stroke:none;stroke-width:1.665;stroke-miterlimit:0.60000002;stroke-dasharray:none"
       d="m 178.12547,129.72083 q 0.24342,-0.0529 0.42333,-0.0529 0.1905,-0.0106 0.34925,-0.0106 0.21167,0 0.43392,0.0106 0.22225,0.0106 0.40217,0.0529 l 1.143,4.77309 1.29116,-4.77309 q 0.34925,-0.0635 0.71967,-0.0635 0.15875,0 0.33867,0.0106 0.17991,0 0.4445,0.0529 l -2.04259,6.76275 q -0.127,0.40217 -0.30691,0.66675 -0.16934,0.26459 -0.39159,0.41275 -0.22225,0.14817 -0.49741,0.20109 -0.27517,0.0635 -0.59267,0.0635 -0.29633,0 -0.53975,-0.0423 -0.23283,-0.0317 -0.46567,-0.0952 -0.0106,-0.0529 -0.0106,-0.0952 0,-0.0317 0,-0.0741 0,-0.254 0.0529,-0.48683 0.0635,-0.22225 0.14816,-0.43392 0.0952,0.0318 0.254,0.0529 0.15875,0.0318 0.3175,0.0318 0.127,0 0.254,-0.0212 0.127,-0.0106 0.24342,-0.0952 0.127,-0.0741 0.23283,-0.24342 0.10584,-0.16933 0.1905,-0.47625 l 0.17992,-0.65616 q -0.11642,0.0106 -0.26458,0.0106 -0.13759,0.0106 -0.28575,0.0106 -0.11642,0 -0.22225,0 -0.10584,0 -0.1905,-0.0212 z" />
    <path
       id="path5951-5"
       d="m 133.74003,137.59142 7.35944,-7.3577 c 1.20658,0.56526 1.82046,0.82207 4.58881,3.59735 1.44037,1.58679 -2.06939,-6.16555 -8.31936,-9.1325"
       style="opacity:0.95999995;fill:none;stroke:#ffffff;stroke-width:1.665;stroke-linecap:round;stroke-linejoin:round;stroke-miterlimit:0.60000002;stroke-dasharray:none;stroke-opacity:1" />
  </g>
</svg>
