<?xml version="1.0" encoding="UTF-8" standalone="no"?>
<!-- Created with Inkscape (http://www.inkscape.org/) -->

<svg
   xmlns:dc="http://purl.org/dc/elements/1.1/"
   xmlns:cc="http://creativecommons.org/ns#"
   xmlns:rdf="http://www.w3.org/1999/02/22-rdf-syntax-ns#"
   xmlns:svg="http://www.w3.org/2000/svg"
   xmlns="http://www.w3.org/2000/svg"
   xmlns:sodipodi="http://sodipodi.sourceforge.net/DTD/sodipodi-0.dtd"
   xmlns:inkscape="http://www.inkscape.org/namespaces/inkscape"
   width="210mm"
   height="297mm"
   viewBox="0 0 210 297"
   version="1.1"
   id="svg8"
   inkscape:version="0.92.1 r15371"
   sodipodi:docname="logo.svg">
  <defs
     id="defs2" />
  <sodipodi:namedview
     id="base"
     pagecolor="#ffffff"
     bordercolor="#666666"
     borderopacity="1.0"
     inkscape:pageopacity="0.0"
     inkscape:pageshadow="2"
     inkscape:zoom="1.979899"
     inkscape:cx="431.2038"
     inkscape:cy="676.74454"
     inkscape:document-units="mm"
     inkscape:current-layer="flowRoot10-6"
     showgrid="false"
     inkscape:window-width="1920"
     inkscape:window-height="1015"
     inkscape:window-x="0"
     inkscape:window-y="0"
     inkscape:window-maximized="1"
     inkscape:snap-nodes="true" />
  <metadata
     id="metadata5">
    <rdf:RDF>
      <cc:Work
         rdf:about="">
        <dc:format>image/svg+xml</dc:format>
        <dc:type
           rdf:resource="http://purl.org/dc/dcmitype/StillImage" />
        <dc:title />
      </cc:Work>
    </rdf:RDF>
  </metadata>
  <g
     inkscape:label="Layer 1"
     inkscape:groupmode="layer"
     id="layer1">
    <rect
       style="fill:#ffffff;fill-opacity:1;stroke:#800080;stroke-width:0.83917981;stroke-miterlimit:4;stroke-dasharray:none;stroke-opacity:1"
       id="rect18"
       width="57.321495"
       height="18.701052"
       x="129.42917"
       y="32.206623"
       inkscape:export-filename="/tmp/minarypath5951.png"
       inkscape:export-xdpi="96"
       inkscape:export-ydpi="96" />
    <flowRoot
       xml:space="preserve"
       id="flowRoot10"
       style="font-style:normal;font-weight:normal;font-size:40px;line-height:1.25;font-family:sans-serif;letter-spacing:0px;word-spacing:0px;fill:#800080;fill-opacity:1;stroke:none"
       transform="matrix(0.26458333,0,0,0.26458333,126.41849,12.027129)"
       inkscape:export-filename="/tmp/minarypath5951.png"
       inkscape:export-xdpi="96"
       inkscape:export-ydpi="96"><flowRegion
         id="flowRegion12"
         style="fill:#800080"><rect
           id="rect14"
           width="259.28574"
           height="62.142864"
           x="87.14286"
           y="90.376823"
           style="fill:#800080" /></flowRegion><flowPara
         id="flowPara16"
         style="font-style:normal;font-variant:normal;font-weight:bold;font-stretch:normal;font-family:Aller;-inkscape-font-specification:'Aller Bold';fill:#800080">Minary</flowPara></flowRoot>    <path
       style="fill:none;stroke:#800080;stroke-width:1.66499996;stroke-linecap:round;stroke-linejoin:round;stroke-miterlimit:0.60000002;stroke-dasharray:none;stroke-opacity:1"
       d="m 133.07996,47.702143 7.35944,-7.3577 c 1.20658,0.565253 1.82046,0.822069 4.58881,3.597349 1.44037,1.586788 -2.06939,-6.165548 -8.31936,-9.132503"
       id="path5951"
       inkscape:connector-curvature="0"
       sodipodi:nodetypes="cccc"
       inkscape:export-filename="/tmp/minarypath5951.png"
       inkscape:export-xdpi="96"
       inkscape:export-ydpi="96" />
    <path
       style="fill:none;stroke:#000000;stroke-width:0.26458332px;stroke-linecap:butt;stroke-linejoin:miter;stroke-opacity:1"
       d="M 21.308407,64.73363 Z"
       id="path5953"
       inkscape:connector-curvature="0" />
    <path
       style="fill:none;stroke:#800080;stroke-width:1.06500006;stroke-linecap:butt;stroke-linejoin:round;stroke-miterlimit:0.60000002;stroke-dasharray:none;stroke-opacity:1"
       d="m 40.193444,86.488916 5.256955,-8.23177 c 1.866098,-2.922091 -5.004926,-5.077381 -5.213502,-3.377894 -0.196741,1.603055 6.188263,2.583613 10.038541,6.361032 1.440368,1.586788 -1.667785,-6.708888 -6.500346,-7.809585"
       id="path5951-3"
       inkscape:connector-curvature="0"
       sodipodi:nodetypes="csscc" />
    <rect
       style="fill:#800080;fill-opacity:1;stroke:#800080;stroke-width:1.3150053;stroke-linecap:round;stroke-linejoin:round;stroke-miterlimit:0.60000002;stroke-dasharray:none;stroke-opacity:1"
       id="rect6011"
       width="25.100046"
       height="23.960079"
       x="97.49894"
       y="23.410923"
       ry="1.796914" />
    <flowRoot
       xml:space="preserve"
       id="flowRoot10-6-2"
       style="font-style:normal;font-weight:normal;font-size:40px;line-height:1.25;font-family:sans-serif;letter-spacing:0px;word-spacing:0px;fill:#ffffff;fill-opacity:1;stroke:none"
       transform="matrix(0.43825368,0,0,0.43825368,69.097486,-9.8473643)"><flowRegion
         id="flowRegion12-7-9"
         style="fill:#ffffff;fill-opacity:1"><rect
           id="rect14-5-1"
           width="259.28574"
           height="62.142864"
           x="87.14286"
           y="90.376823"
           style="fill:#ffffff;fill-opacity:1" /></flowRegion><flowPara
         id="flowPara16-3-2"
         style="font-style:normal;font-variant:normal;font-weight:bold;font-stretch:normal;font-family:Aller;-inkscape-font-specification:'Aller Bold';fill:#ffffff;fill-opacity:1">M</flowPara></flowRoot>    <path
       style="fill:none;stroke:#ffffff;stroke-width:1.66499996;stroke-linecap:round;stroke-linejoin:round;stroke-miterlimit:0.60000002;stroke-dasharray:none;stroke-opacity:1"
       d="m 93.870042,36.303776 7.359448,-7.357699 c 1.20658,0.565253 1.82046,0.822069 4.58881,3.597349 1.44037,1.586788 -2.06939,-6.165548 -8.31936,-9.132503"
       id="path5951-6-7"
       inkscape:connector-curvature="0"
       sodipodi:nodetypes="cccc" />
    <rect
       style="fill:#ffffff;fill-opacity:1;stroke:#ffffff;stroke-width:1.52199161;stroke-linecap:round;stroke-linejoin:round;stroke-miterlimit:0.60000002;stroke-dasharray:none;stroke-opacity:1"
       id="rect6100"
       width="112.66348"
       height="41.035248"
       x="60.999584"
       y="73.357536"
       ry="1.6002609"
       inkscape:export-xdpi="96"
       inkscape:export-ydpi="96" />
    <flowRoot
       xml:space="preserve"
       id="flowRoot10-0"
       style="font-style:normal;font-weight:normal;font-size:40px;line-height:1.25;font-family:sans-serif;letter-spacing:0px;word-spacing:0px;fill:#800080;fill-opacity:1;stroke:none"
       transform="matrix(0.26458333,0,0,0.26458333,63.427875,65.255999)"
       inkscape:export-xdpi="96"
       inkscape:export-ydpi="96"><flowRegion
         id="flowRegion12-9"
         style="fill:#800080"><rect
           id="rect14-3"
           width="259.28574"
           height="62.142864"
           x="87.14286"
           y="90.376823"
           style="fill:#800080" /></flowRegion><flowPara
         id="flowPara16-6"
         style="font-style:normal;font-variant:normal;font-weight:bold;font-stretch:normal;font-family:Aller;-inkscape-font-specification:'Aller Bold';fill:#800080">Minary</flowPara></flowRoot>    <rect
       style="fill:none;fill-opacity:1;stroke:#800080;stroke-width:0.83917981;stroke-miterlimit:4;stroke-dasharray:none;stroke-opacity:1"
       id="rect18-0"
       width="57.321499"
       height="18.701054"
       x="66.43856"
       y="85.435501"
       inkscape:export-xdpi="96"
       inkscape:export-ydpi="96" />
    <path
       style="fill:none;stroke:#800080;stroke-width:1.66499996;stroke-linecap:round;stroke-linejoin:round;stroke-miterlimit:0.60000002;stroke-dasharray:none;stroke-opacity:1"
       d="m 70.089348,100.93101 7.359447,-7.357697 c 1.206575,0.56525 1.820456,0.82207 4.588805,3.59735 1.44037,1.58679 -2.069385,-6.165549 -8.319357,-9.132504"
       id="path5951-6"
       inkscape:connector-curvature="0"
       sodipodi:nodetypes="cccc"
       inkscape:export-xdpi="96"
       inkscape:export-ydpi="96" />
    <rect
       style="fill:#800080;fill-opacity:1;stroke:#800080;stroke-width:1.3150053;stroke-linecap:round;stroke-linejoin:round;stroke-miterlimit:0.60000002;stroke-dasharray:none;stroke-opacity:1"
       id="rect6011-2"
       width="25.100046"
       height="23.960079"
       x="140.74797"
       y="81.851555"
       ry="1.796914"
       inkscape:export-xdpi="96"
       inkscape:export-ydpi="96" />
    <flowRoot
       xml:space="preserve"
       id="flowRoot10-6-2-6"
       style="font-style:normal;font-weight:normal;font-size:40px;line-height:1.25;font-family:sans-serif;letter-spacing:0px;word-spacing:0px;fill:#ffffff;fill-opacity:1;stroke:none"
       transform="matrix(0.43825369,0,0,0.43825369,112.34651,48.593262)"
       inkscape:export-xdpi="96"
       inkscape:export-ydpi="96"><flowRegion
         id="flowRegion12-7-9-1"
         style="fill:#ffffff;fill-opacity:1"><rect
           id="rect14-5-1-8"
           width="259.28574"
           height="62.142864"
           x="87.14286"
           y="90.376823"
           style="fill:#ffffff;fill-opacity:1" /></flowRegion><flowPara
         id="flowPara16-3-2-7"
         style="font-style:normal;font-variant:normal;font-weight:bold;font-stretch:normal;font-family:Aller;-inkscape-font-specification:'Aller Bold';fill:#ffffff;fill-opacity:1">M</flowPara></flowRoot>    <path
       style="fill:none;stroke:#ffffff;stroke-width:1.66499996;stroke-linecap:round;stroke-linejoin:round;stroke-miterlimit:0.60000002;stroke-dasharray:none;stroke-opacity:1"
       d="m 137.11907,94.744403 7.35945,-7.3577 c 1.20658,0.565253 1.82046,0.822069 4.58881,3.597349 1.44037,1.586791 -2.06939,-6.165548 -8.31936,-9.132503"
       id="path5951-6-7-9"
       inkscape:connector-curvature="0"
       sodipodi:nodetypes="cccc"
       inkscape:export-xdpi="96"
       inkscape:export-ydpi="96" />
    <rect
       style="fill:#ffffff;fill-opacity:1;stroke:#800080;stroke-width:0.83917981;stroke-miterlimit:4;stroke-dasharray:none;stroke-opacity:1"
       id="rect18-3"
       width="57.321499"
       height="18.701054"
       x="119.1393"
       y="135.84038"
       inkscape:export-filename="/tmp/minarypath5951.png"
       inkscape:export-xdpi="96"
       inkscape:export-ydpi="96" />
    <g
       aria-label="Minary"
       transform="matrix(0.26458333,0,0,0.26458333,116.12862,115.66089)"
       style="font-style:normal;font-weight:normal;font-size:40px;line-height:1.25;font-family:sans-serif;letter-spacing:0px;word-spacing:0px;fill:#800080;fill-opacity:1;stroke:none"
       id="flowRoot10-6">
      <path
         d="m 90.742578,97.007578 q 1.6,-0.24 3.08,-0.24 1.56,0 3.08,0.24 l 6.600002,16.480002 6.8,-16.480002 q 1.24,-0.24 2.76,-0.24 1.52,0 2.92,0.24 l 1.36,28.760002 q -1.52,0.24 -2.88,0.24 -1.36,0 -2.68,-0.24 l -0.72,-19.52 -5.84,13.52 q -0.56,0.08 -1.16,0.16 -0.6,0.04 -1.2,0.04 -0.52,0 -1.04,-0.04 -0.52,-0.04 -1.08,-0.16 l -5.440002,-13.8 -0.56,19.8 q -1.28,0.24 -2.48,0.24 -1.28,0 -2.64,-0.24 z"
         style="font-style:normal;font-variant:normal;font-weight:bold;font-stretch:normal;font-family:Aller;-inkscape-font-specification:'Aller Bold';fill:#800080"
         id="path5283" />
      <path
         d="m 123.71883,109.40758 h -2.68 q -0.12,-0.52 -0.2,-1.08 -0.04,-0.6 -0.04,-1.12 0,-1.08 0.24,-2.12 h 8.24 v 20.68 q -1.44,0.24 -2.8,0.24 -1.32,0 -2.76,-0.24 z m -0.84,-7.8 q -0.24,-1.36 -0.24,-2.680002 0,-1.28 0.24,-2.68 0.68,-0.12 1.44,-0.16 0.8,-0.08 1.44,-0.08 0.68,0 1.48,0.08 0.8,0.04 1.48,0.16 0.12,0.68 0.16,1.36 0.04,0.64 0.04,1.32 0,0.64 -0.04,1.320002 -0.04,0.68 -0.16,1.36 -0.68,0.12 -1.48,0.16 -0.76,0.04 -1.44,0.04 -0.64,0 -1.44,-0.04 -0.8,-0.04 -1.48,-0.16 z"
         style="font-style:normal;font-variant:normal;font-weight:bold;font-stretch:normal;font-family:Aller;-inkscape-font-specification:'Aller Bold';fill:#800080"
         id="path5285" />
      <path
         d="m 134.86445,105.08758 q 0.56,-0.12 1.12,-0.16 0.56,-0.08 1.24,-0.08 0.68,0 1.2,0.08 0.52,0.04 1.08,0.16 0.12,0.2 0.2,0.6 0.12,0.36 0.2,0.8 0.08,0.4 0.12,0.8 0.08,0.4 0.12,0.68 0.4,-0.6 0.96,-1.2 0.56,-0.6 1.28,-1.08 0.76,-0.48 1.68,-0.76 0.92,-0.32 2.04,-0.32 3.52,0 5.28,1.92 1.8,1.92 1.8,6.04 v 13.2 q -1.44,0.24 -2.84,0.24 -1.4,0 -2.84,-0.24 v -11.68 q 0,-2.16 -0.68,-3.32 -0.64,-1.16 -2.28,-1.16 -0.68,0 -1.4,0.2 -0.72,0.2 -1.32,0.8 -0.56,0.56 -0.92,1.6 -0.36,1.04 -0.36,2.72 v 10.84 q -1.44,0.24 -2.84,0.24 -1.4,0 -2.84,-0.24 z"
         style="font-style:normal;font-variant:normal;font-weight:bold;font-stretch:normal;font-family:Aller;-inkscape-font-specification:'Aller Bold';fill:#800080"
         id="path5287" />
      <path
         d="m 168.70008,116.28758 q -0.48,-0.08 -1.04,-0.12 -0.56,-0.08 -1,-0.08 -1.96,0 -3.12,0.72 -1.12,0.68 -1.12,2.24 0,1.04 0.44,1.6 0.44,0.56 1.04,0.84 0.64,0.24 1.32,0.32 0.72,0.04 1.24,0.04 0.6,0 1.2,-0.08 0.6,-0.12 1.04,-0.2 z m 0,-4.12 q 0,-0.96 -0.32,-1.56 -0.32,-0.6 -0.88,-0.92 -0.56,-0.36 -1.4,-0.48 -0.8,-0.12 -1.8,-0.12 -2.16,0 -4.6,0.84 -0.56,-1.04 -0.84,-1.96 -0.28,-0.92 -0.28,-2.2 1.76,-0.6 3.52,-0.88 1.76,-0.28 3.28,-0.28 4.16,0 6.48,2 2.36,2 2.36,6.4 v 12 q -1.4,0.44 -3.4,0.84 -2,0.4 -4.52,0.4 -2.04,0 -3.76,-0.36 -1.68,-0.36 -2.92,-1.2 -1.2,-0.84 -1.88,-2.16 -0.64,-1.32 -0.64,-3.24 0,-1.92 0.8,-3.2 0.84,-1.32 2.12,-2.08 1.32,-0.8 2.92,-1.12 1.6,-0.36 3.2,-0.36 1.16,0 2.56,0.12 z"
         style="font-style:normal;font-variant:normal;font-weight:bold;font-stretch:normal;font-family:Aller;-inkscape-font-specification:'Aller Bold';fill:#800080"
         id="path5289" />
      <path
         d="m 179.23945,105.08758 q 0.6,-0.12 1.12,-0.16 0.56,-0.08 1.2,-0.08 0.6,0 1.16,0.08 0.6,0.08 1.16,0.2 0.12,0.2 0.2,0.6 0.12,0.36 0.2,0.8 0.08,0.4 0.12,0.84 0.08,0.4 0.12,0.68 0.88,-1.24 2.16,-2.2 1.28,-1 3.2,-1 0.4,0 0.92,0.04 0.52,0.04 0.76,0.12 0.08,0.4 0.12,0.92 0.04,0.52 0.04,1.08 0,0.68 -0.08,1.48 -0.04,0.8 -0.2,1.52 -0.44,-0.08 -1,-0.08 -0.52,0 -0.64,0 -0.68,0 -1.52,0.16 -0.84,0.12 -1.6,0.72 -0.76,0.6 -1.28,1.8 -0.48,1.2 -0.48,3.36 v 9.84 q -0.72,0.12 -1.44,0.16 -0.72,0.04 -1.4,0.04 -0.68,0 -1.4,-0.04 -0.68,-0.04 -1.44,-0.16 z"
         style="font-style:normal;font-variant:normal;font-weight:bold;font-stretch:normal;font-family:Aller;-inkscape-font-specification:'Aller Bold';fill:#800080"
         id="path5291" />
      <path
         d="m 192.9332,105.08758 q 0.92,-0.2 1.6,-0.2 0.72,-0.04 1.32,-0.04 0.8,0 1.64,0.04 0.84,0.04 1.52,0.2 l 4.32,18.04 4.88,-18.04 q 1.32,-0.24 2.72,-0.24 0.6,0 1.28,0.04 0.68,0 1.68,0.2 l -7.72,25.56 q -0.48,1.52 -1.16,2.52 -0.64,1 -1.48,1.56 -0.84,0.56 -1.88,0.76 -1.04,0.24 -2.24,0.24 -1.12,0 -2.04,-0.16 -0.88,-0.12 -1.76,-0.36 -0.04,-0.2 -0.04,-0.36 0,-0.12 0,-0.28 0,-0.96 0.2,-1.84 0.24,-0.84 0.56,-1.64 0.36,0.12 0.96,0.2 0.6,0.12 1.2,0.12 0.48,0 0.96,-0.08 0.48,-0.04 0.92,-0.36 0.48,-0.28 0.88,-0.92 0.4,-0.64 0.72,-1.8 l 0.68,-2.48 q -0.44,0.04 -1,0.04 -0.52,0.04 -1.08,0.04 -0.44,0 -0.84,0 -0.4,0 -0.72,-0.08 z"
         style="font-style:normal;font-variant:normal;font-weight:bold;font-stretch:normal;font-family:Aller;-inkscape-font-specification:'Aller Bold';fill:#800080"
         id="path5293" />
    </g>
    <path
       style="fill:none;stroke:#800080;stroke-width:1.66499996;stroke-linecap:round;stroke-linejoin:round;stroke-miterlimit:0.60000002;stroke-dasharray:none;stroke-opacity:1"
       d="m 122.79009,151.3359 7.35944,-7.3577 c 1.20658,0.56526 1.82046,0.82207 4.58881,3.59735 1.44037,1.58679 -2.06939,-6.16555 -8.31936,-9.1325"
       id="path5951-5"
       inkscape:connector-curvature="0"
       sodipodi:nodetypes="cccc"
       inkscape:export-filename="/tmp/minarypath5951.png"
       inkscape:export-xdpi="96"
       inkscape:export-ydpi="96" />
    <text
       xml:space="preserve"
       style="font-style:normal;font-weight:normal;font-size:10.58333302px;line-height:1.25;font-family:sans-serif;letter-spacing:0px;word-spacing:0px;fill:#000000;fill-opacity:1;stroke:none;stroke-width:0.26458332"
       x="119.46947"
       y="131.42653"
       id="text5281"><tspan
         sodipodi:role="line"
         id="tspan5279"
         x="119.46947"
         y="131.42653"
         style="font-size:2.82222223px;stroke-width:0.26458332">text to path:</tspan></text>
  </g>
</svg>
